{
  "accessors": [
    {
      "bufferView": 2,
      "componentType": 5126,
      "count": 13405,
      "max": [
        -0.18261000514030457,
        -0.056920900940895081,
        0.13076899945735931
      ],
      "min": [
        -0.78104698657989502,
        -0.42249101400375366,
        -0.23912699520587921
      ],
      "type": "VEC3"
    },
    {
      "bufferView": 2,
      "byteOffset": 160860,
      "componentType": 5126,
      "count": 13405,
      "max": [
        1,
        1,
        1
      ],
      "min": [
        -1,
        -1,
        -1
      ],
      "type": "VEC3"
    },
    {
      "bufferView": 3,
      "componentType": 5126,
      "count": 13405,
      "max": [
        1,
        1,
        1,
        1
      ],
      "min": [
        -1,
        -1,
        -1,
        -1
      ],
      "type": "VEC4"
    },
    {
      "bufferView": 2,
      "byteOffset": 321720,
      "componentType": 5126,
      "count": 13405,
      "max": [
        1,
        1,
        1
      ],
      "min": [
        1,
        1,
        1
      ],
      "type": "VEC3"
    },
    {
      "bufferView": 1,
      "componentType": 5126,
      "count": 13405,
      "max": [
        0.99900001287460327,
        0.99899297952651978
      ],
      "min": [
        0.0010000000474974513,
        0.0010000000474974513
      ],
      "type": "VEC2"
    },
    {
      "bufferView": 0,
      "componentType": 5125,
      "count": 62676,
      "max": [
        13404
      ],
      "min": [
        0
      ],
      "type": "SCALAR"
    },
    {
      "bufferView": 2,
      "byteOffset": 482580,
      "componentType": 5126,
      "count": 198,
      "max": [
        -0.20174700021743774,
        -0.069428101181983948,
        0.11095499992370605
      ],
      "min": [
        -0.76029902696609497,
        -0.41477200388908386,
        -0.23666000366210938
      ],
      "type": "VEC3"
    },
    {
      "bufferView": 2,
      "byteOffset": 484956,
      "componentType": 5126,
      "count": 198,
      "max": [
        1,
        0.9999997615814209,
        1
      ],
      "min": [
        -1,
        -1,
        -1
      ],
      "type": "VEC3"
    },
    {
      "bufferView": 3,
      "byteOffset": 214480,
      "componentType": 5126,
      "count": 198,
      "max": [
        1,
        0.9342045783996582,
        1,
        1
      ],
      "min": [
        -1,
        -0.93206459283828735,
        -1,
        1
      ],
      "type": "VEC4"
    },
    {
      "bufferView": 1,
      "byteOffset": 107240,
      "componentType": 5126,
      "count": 198,
      "max": [
        0.93347901105880737,
        0.99500000476837158
      ],
      "min": [
        0.004999999888241291,
        0.004999999888241291
      ],
      "type": "VEC2"
    },
    {
      "bufferView": 0,
      "byteOffset": 250704,
      "componentType": 5125,
      "count": 1536,
      "max": [
        197
      ],
      "min": [
        0
      ],
      "type": "SCALAR"
    }
  ],
  "asset": {
    "extras": {
      "author": "SebastianSosnowski (https://sketchfab.com/SebastianSosnowski)",
      "license": "CC-BY-4.0 (http://creativecommons.org/licenses/by/4.0/)",
      "source": "https://sketchfab.com/3d-models/old-chest-d280b6c1a64d4fd2a1872e232ea1581a",
      "title": "Old Chest"
    },
    "generator": "Sketchfab-4.34.0",
    "version": "2.0"
  },
  "bufferViews": [
    {
      "buffer": 0,
      "byteLength": 256848,
      "byteOffset": 0,
      "name": "floatBufferViews",
      "target": 34963
    },
    {
      "buffer": 0,
      "byteLength": 108824,
      "byteOffset": 256848,
      "byteStride": 8,
      "name": "floatBufferViews",
      "target": 34962
    },
    {
      "buffer": 0,
      "byteLength": 487332,
      "byteOffset": 365672,
      "byteStride": 12,
      "name": "floatBufferViews",
      "target": 34962
    },
    {
      "buffer": 0,
      "byteLength": 217648,
      "byteOffset": 853004,
      "byteStride": 16,
      "name": "floatBufferViews",
      "target": 34962
    }
  ],
  "buffers": [
    {
      "byteLength": 1070652,
      "uri": "scene.bin"
    }
  ],
  "images": [
    {
      "uri": "textures/Metal_metallicRoughness.png"
    },
    {
      "uri": "textures/Metal_baseColor.jpeg"
    },
    {
      "uri": "textures/Metal_normal.jpeg"
    },
    {
      "uri": "textures/Drewno_baseColor.jpeg"
    },
    {
      "uri": "textures/Drewno_normal.jpeg"
    },
    {
      "uri": "textures/Drewno_metallicRoughness.png"
    }
  ],
  "materials": [
    {
      "doubleSided": false,
      "name": "Drewno",
      "normalTexture": {
        "index": 4,
        "scale": 1,
        "texCoord": 0
      },
      "pbrMetallicRoughness": {
        "baseColorFactor": [
          1,
          1,
          1,
          1
        ],
        "baseColorTexture": {
          "index": 3,
          "texCoord": 0
        },
        "metallicFactor": 0,
        "metallicRoughnessTexture": {
          "index": 5,
          "texCoord": 0
        },
        "roughnessFactor": 1
      }
    },
    {
      "doubleSided": true,
      "name": "Metal",
      "normalTexture": {
        "index": 2,
        "scale": 1,
        "texCoord": 0
      },
      "pbrMetallicRoughness": {
        "baseColorFactor": [
          1,
          1,
          1,
          1
        ],
        "baseColorTexture": {
          "index": 1,
          "texCoord": 0
        },
        "metallicFactor": 1,
        "metallicRoughnessTexture": {
          "index": 0,
          "texCoord": 0
        },
        "roughnessFactor": 0.88651516080000003
      }
    }
  ],
  "meshes": [
    {
      "name": "defaultMaterial",
      "primitives": [
        {
          "attributes": {
            "COLOR_0": 3,
            "NORMAL": 1,
            "POSITION": 0,
            "TANGENT": 2,
            "TEXCOORD_0": 4
          },
          "indices": 5,
          "material": 1,
          "mode": 4
        }
      ]
    },
    {
      "name": "defaultMaterial",
      "primitives": [
        {
          "attributes": {
            "NORMAL": 7,
            "POSITION": 6,
            "TANGENT": 8,
            "TEXCOORD_0": 9
          },
          "indices": 10,
          "material": 0,
          "mode": 4
        }
      ]
    }
  ],
  "nodes": [
    {
      "children": [
        1
      ],
      "name": "RootNode (gltf orientation matrix)",
      "rotation": [
        -0.70710678118654746,
        -0,
        -0,
        0.70710678118654757
      ]
    },
    {
      "children": [
        2
      ],
      "name": "RootNode (model correction matrix)"
    },
    {
      "children": [
        3,
        5
      ],
      "matrix": [
        1,
        0,
        0,
        0,
        0,
        -4.3711390063094768e-08,
        0.999999999999999,
        0,
        0,
        -0.999999999999999,
        -4.3711390063094768e-08,
        0,
        0,
        0,
        0,
        1
      ],
      "name": "Collada visual scene group"
    },
    {
      "children": [
        4
      ],
      "name": "Metal_LP"
    },
    {
      "mesh": 0,
      "name": "defaultMaterial"
    },
    {
      "children": [
        6
      ],
      "name": "Drewno_LP"
    },
    {
      "mesh": 1,
      "name": "defaultMaterial"
    }
  ],
  "samplers": [
    {
      "magFilter": 9729,
      "minFilter": 9987,
      "wrapS": 10497,
      "wrapT": 10497
    }
  ],
  "scene": 0,
  "scenes": [
    {
      "name": "OSG_Scene",
      "nodes": [
        0
      ]
    }
  ],
  "textures": [
    {
      "sampler": 0,
      "source": 0
    },
    {
      "sampler": 0,
      "source": 1
    },
    {
      "sampler": 0,
      "source": 2
    },
    {
      "sampler": 0,
      "source": 3
    },
    {
      "sampler": 0,
      "source": 4
    },
    {
      "sampler": 0,
      "source": 5
    }
  ]
}

